<svg width="128" height="30" fill="none" xmlns="http://www.w3.org/2000/svg"><path fill-rule="evenodd" clip-rule="evenodd" d="M75.712 8.516a1.64 1.64 0 00-.962 1.564l.02.01a1.58 1.58 0 001.62 1.56 1.64 1.64 0 10-.678-3.134zM39.72 9.26h-3.21v13h3.21v-13zM46 12.22c-3 0-5 1.93-5 5.15 0 3.29 1.93 5.17 5 5.17 3.07 0 5-1.95 5-5.17 0-3.22-2-5.15-5-5.15zm1.82 5.15c0-1.77-.69-2.81-1.79-2.81s-1.78 1-1.78 2.81.68 2.8 1.78 2.8 1.81-.99 1.81-2.79l-.02-.01zm7.56 5.56h-3.1l.02.01c.18 1.79 1.96 3.06 4.74 3.07 3.06 0 5.14-1.47 5.14-3.82v-9.74H59v1.613a3.07 3.07 0 00-2.91-1.693c-2.51 0-4 1.92-4 5s1.56 4.87 3.91 4.87a3.07 3.07 0 002.99-1.73v1.78c0 .98-.64 1.64-1.87 1.64a1.66 1.66 0 01-1.74-1zM59 17.37c0-1.57-.72-2.56-1.86-2.56-1.14 0-1.84 1-1.84 2.56s.69 2.48 1.84 2.48c1.15 0 1.86-.85 1.86-2.48zm9.45-5.15c-3 0-5 1.93-5 5.15h.02c0 3.29 1.92 5.17 4.98 5.17 3.06 0 5-1.95 5-5.17 0-3.22-2-5.15-5-5.15zm1.82 5.15c0-1.77-.7-2.81-1.79-2.81s-1.78 1-1.78 2.81.68 2.8 1.78 2.8 1.81-.99 1.81-2.79l-.02-.01zm4.48-4.93H78v9.86h-3.2l-.05-9.86zm11.05 10c2.45 0 3.89-1.86 3.89-5.07l.06.01c0-3.22-1.45-5.07-3.97-5.05a3.09 3.09 0 00-3 1.9h-.06v-1.76h-3.19v13h3.21v-4.86h.06a3.07 3.07 0 003 1.83zm.62-5.07c0-1.56-.73-2.57-1.86-2.57-1.13 0-1.84 1-1.85 2.57-.01 1.57.72 2.56 1.85 2.56 1.13 0 1.92-.93 1.92-2.55l-.06-.01zm13.13-1.85c-.02-2.04-1.69-3.31-4.38-3.31l.06.01c-2.71 0-4.39 1.25-4.45 3.21 0 1.51 1.01 2.52 2.94 2.93l1.86.39c.77.16 1.07.25 1.07.78s-.44.83-1.38.83-1.52-.43-1.61-1.16h-3.11c.13 2.01 1.92 3.33 4.67 3.33s4.6-1.36 4.6-3.36c0-1.49-.8-2.29-2.8-2.71l-2.06-.42c-.74-.15-1.11-.31-1.11-.82s.42-.85 1.3-.85c.88 0 1.47.44 1.47 1.15h2.93zm11.02 6.77h-3.11v-1.85h-.06a2.82 2.82 0 01-2.87 2.05 3.428 3.428 0 01-3.53-3.71v-6.33h3.21v5.64c0 1.16.61 1.79 1.61 1.79a1.638 1.638 0 001.61-1.88v-5.55h3.2l-.06 9.84zm4.67-9.85h-3.12l.02 9.86h3.21v-5.82a1.43 1.43 0 011.43-1.61c.88 0 1.37.53 1.37 1.53v5.9h3.06v-5.84a1.402 1.402 0 011.41-1.59c.91 0 1.38.56 1.38 1.56v5.87h3.23v-6.69a3.123 3.123 0 00-3.23-3.35 3 3 0 00-3 2.09h-.14a2.56 2.56 0 00-2.74-2.09 2.86 2.86 0 00-2.81 2.08h-.07v-1.9zm-85.08-2.33A9.88 9.88 0 0013 3.43H.52v26.34h26.35V17.46a9.87 9.87 0 003.29-7.35zm-5.07 0a4.82 4.82 0 11-9.64.02 4.82 4.82 0 019.64-.02zM5.59 24.7H21.8v-4.83a9.67 9.67 0 01-1.53.13 9.9 9.9 0 01-9.89-9.89c.004-.54.055-1.079.15-1.61H5.59v16.2z" fill="#696871"/></svg>