<svg width="124" height="30" fill="none" xmlns="http://www.w3.org/2000/svg"><path d="M26.73 10.71c.36 0 .48.13.48.48v7.92h4.07c.35 0 .48.13.48.48v.7c0 .35-.13.48-.48.48h-5.36c-.35 0-.49-.13-.49-.48v-9.1c0-.35.14-.48.49-.48h.81z" fill="#696871"/><path fill-rule="evenodd" clip-rule="evenodd" d="M39.31 10.5c-2.54 0-4 1.39-4 3.7v3.08c0 2.31 1.47 3.7 4 3.7 2.53 0 4-1.39 4-3.7V14.2c0-2.31-1.46-3.7-4-3.7zm.05 1.7c1.46 0 2.27.7 2.27 2v3.1c0 1.28-.81 2-2.27 2s-2.26-.69-2.26-2v-3.1c0-1.29.8-2 2.26-2z" fill="#696871"/><path d="M55.22 15.26c.39 0 .48.13.48.48v1.9A3 3 0 0154.64 20a4.36 4.36 0 01-3 .94c-2.59 0-4-1.39-4-3.7v-3.1c0-2.28 1.46-3.68 4-3.68 2 0 3.3.79 3.85 2.37a.43.43 0 01-.3.62l-.78.27c-.34.12-.48.05-.6-.3a2.06 2.06 0 00-2.17-1.3c-1.47 0-2.27.71-2.27 2v3.18c0 1.31.81 2 2.27 2S54 18.63 54 17.65v-.74h-2.17c-.36 0-.49-.14-.49-.49v-.68c0-.35.13-.48.49-.48h3.39z" fill="#696871"/><path fill-rule="evenodd" clip-rule="evenodd" d="M63.83 10.5c-2.54 0-4 1.39-4 3.7v3.08c0 2.31 1.47 3.7 4 3.7 2.53 0 4-1.39 4-3.7V14.2c0-2.31-1.46-3.7-4-3.7zm.05 1.7c1.45 0 2.26.7 2.26 2v3.1c0 1.28-.8 2-2.26 2-1.46 0-2.27-.69-2.27-2v-3.1c0-1.29.82-2 2.27-2z" fill="#696871"/><path d="M72.54 11c0-.22.07-.29.29-.29h.46c.22 0 .27.07.27.29v9.48c0 .22 0 .29-.27.29h-.46c-.22 0-.29-.07-.29-.29V11z" fill="#696871"/><path fill-rule="evenodd" clip-rule="evenodd" d="M85.81 13.85a3.14 3.14 0 00-3.14-3.14h-3.73c-.21 0-.29.07-.29.29v9.48c0 .22.08.29.29.29h.47c.21 0 .26-.07.26-.29v-3.49h3a3.14 3.14 0 003.14-3.14zm-1.342 1.06A2.18 2.18 0 0182.58 16h-3v-4.36h3a2.18 2.18 0 011.888 3.27z" fill="#696871"/><path d="M93.62 10.51a3.61 3.61 0 013.72 2.18c.08.16 0 .29-.16.37l-.44.2c-.18.07-.25.06-.36-.13a2.72 2.72 0 00-2.76-1.64c-1.69 0-2.61.67-2.61 1.87a1.52 1.52 0 001.27 1.54 6.79 6.79 0 001.66.32 6.882 6.882 0 012 .41A2.25 2.25 0 0197.5 18c0 1.87-1.36 3-3.86 3a3.61 3.61 0 01-3.83-2.43.27.27 0 01.17-.38l.44-.16a.27.27 0 01.36.17 2.86 2.86 0 002.86 1.8c1.89 0 2.82-.66 2.82-2a1.49 1.49 0 00-1.17-1.53 7.003 7.003 0 00-1.59-.28l-1.08-.14a9.494 9.494 0 01-1-.27 2.629 2.629 0 01-.89-.47 2.44 2.44 0 01-.8-1.91c.07-1.75 1.38-2.89 3.69-2.89zm9.27 6.84a2.78 2.78 0 005.55 0V11c0-.22.07-.29.29-.29h.46c.22 0 .29.07.29.29v6.34c0 2.27-1.34 3.64-3.81 3.64-2.47 0-3.81-1.37-3.81-3.64V11c0-.22.07-.29.28-.29h.47c.21 0 .28.07.28.29v6.35zm20.39-6.64c.22 0 .29.07.29.29v9.48c0 .22-.07.29-.29.29h-.42c-.21 0-.28-.07-.28-.29v-5.77c0-.84.057-1.678.17-2.51h-.06c-.312.76-.677 1.5-1.09 2.21l-2.15 3.79a.35.35 0 01-.33.22h-.28a.37.37 0 01-.34-.22l-2.18-3.83a16.15 16.15 0 01-1-2.18h-.06c.102.84.156 1.684.16 2.53v5.76c0 .22-.07.29-.29.29h-.39c-.22 0-.29-.07-.29-.29V11c0-.22.07-.29.29-.29h.36a.4.4 0 01.4.23l3.5 6.22 3.48-6.16c.11-.21.17-.24.39-.24l.41-.05z" fill="#696871"/><path fill-rule="evenodd" clip-rule="evenodd" d="M2.31 1.69V22a.94.94 0 01-.94.94h-.22A.94.94 0 01.21 22V1.69a.94.94 0 01.94-.93h.22a.94.94 0 01.94.93zm11.53 12.875a1 1 0 01.74-.275l-.05.02a1 1 0 011.1 1.05v5.5a1.05 1.05 0 11-2.1 0v-5.57a1 1 0 01.31-.725zm3 2.895a1 1 0 011-1 1 1 0 011.09 1.05v1.21a1.045 1.045 0 11-2.09 0v-1.26zm-7.9 8.32v-7.23a1.72 1.72 0 01-1.09.35 1.77 1.77 0 01-1-.34v7.22a1.045 1.045 0 002.09 0zm-4.36-4.49a1.8 1.8 0 01-1-.34v7.25a1.05 1.05 0 102.1 0V21a1.83 1.83 0 01-1.1.29zm6.68-4.86a1.83 1.83 0 01-1.05-.34v7.27a1.05 1.05 0 102.1 0V16.1a1.77 1.77 0 01-1.1.35l.05-.02zm-6.57 4.09h-.22a.94.94 0 01-.94-.94V4.11a.94.94 0 01.94-.93h.22a.94.94 0 01.94.93V19.6c0 .52-.42.94-.94.94v-.02zm3.08-2.38H8a.93.93 0 00.93-.93V6.51A.94.94 0 008 5.57h-.23a.93.93 0 00-.93.94v10.7c0 .514.416.93.93.93zm3.54-2.45h-.21a.94.94 0 01-.94-.93V9a.94.94 0 01.94-1h.22c.52 0 .94.42.94.94v5.8a.94.94 0 01-.94.95h-.01zm3.1-2.15h.23a.94.94 0 00.93-.94v-1.49a.94.94 0 00-.94-.93h-.22a.94.94 0 00-.94.93v1.49c0 .52.42.94.94.94z" fill="#696871"/></svg>