<svg width="120" height="28" fill="none" xmlns="http://www.w3.org/2000/svg"><path fill-rule="evenodd" clip-rule="evenodd" d="M71.35 7.382a1.53 1.53 0 00-.91 1.438v.02A1.46 1.46 0 0072 10.31a1.53 1.53 0 10-.65-2.928zm-33.48.688h-3V20.2h3V8.07zm5.87 2.76c-2.84 0-4.68 1.79-4.68 4.79 0 3.05 1.8 4.8 4.68 4.8s4.68-1.8 4.68-4.8-1.84-4.79-4.68-4.79zm1.67 4.79c0-1.65-.65-2.62-1.67-2.62s-1.66 1-1.66 2.62.63 2.6 1.66 2.6c1.03 0 1.67-.92 1.67-2.59v-.01zm7.02 5.17h-2.88v.01c.17 1.66 1.82 2.85 4.47 2.85 2.85 0 4.78-1.36 4.78-3.55V11h-3v1.67a2.87 2.87 0 00-2.76-1.76c-2.3 0-3.68 1.81-3.68 4.68 0 2.87 1.45 4.54 3.64 4.54a2.84 2.84 0 002.73-1.64h.06v1.68c0 .9-.6 1.52-1.74 1.52a1.55 1.55 0 01-1.62-.9zm3.37-5.18c0-1.46-.67-2.38-1.73-2.38s-1.71.91-1.71 2.38c0 1.47.64 2.3 1.71 2.3 1.07 0 1.73-.81 1.73-2.29v-.01zm8.81-4.79c-2.84 0-4.68 1.79-4.68 4.79v.01c0 3.05 1.79 4.79 4.68 4.79 2.89 0 4.69-1.8 4.69-4.8s-1.85-4.79-4.69-4.79zm1.67 4.79c0-1.65-.65-2.62-1.67-2.62S63 14 63 15.63c0 1.63.63 2.6 1.65 2.6s1.63-.93 1.63-2.6v-.02zm4.16-4.59h3v9.18h-3v-9.18zm10.28 9.3c2.28 0 3.61-1.71 3.61-4.71l.04.02c0-3-1.37-4.72-3.67-4.76a2.87 2.87 0 00-2.78 1.77h-.06V11h-3v12.14h3v-4.52h.06a2.86 2.86 0 002.8 1.7zm.61-4.71c0-1.46-.67-2.39-1.72-2.39-1.05 0-1.72.94-1.73 2.39-.01 1.45.68 2.38 1.73 2.38 1.05 0 1.72-.91 1.72-2.36v-.02zm12.22-1.73c-.07-1.89-1.58-3.07-4.07-3.07v.02c-2.48 0-4.09 1.17-4.11 2.97 0 1.4.94 2.35 2.73 2.72l1.73.37c.72.15 1 .25 1 .73s-.4.77-1.28.77-1.42-.4-1.51-1.08h-2.89c.13 1.87 1.8 3.09 4.35 3.09s4.28-1.22 4.28-3.12c0-1.39-.78-2.13-2.61-2.52l-1.92-.39c-.67-.14-1-.29-1-.76 0-.47.37-.79 1.2-.79s1.37.41 1.37 1.06h2.73zm10.24 6.3h-2.89v-1.71h-.06a2.61 2.61 0 01-2.66 1.91 3.19 3.19 0 01-3.36-3.45V11h3v5.24c0 1.09.56 1.67 1.49 1.67a1.532 1.532 0 001.52-1.73V11h3l-.04 9.18zm4.35-9.18h-2.9l-.05 9.2h3v-5.41a1.34 1.34 0 011.33-1.5c.82 0 1.27.5 1.27 1.42v5.49h2.85v-5.43a1.311 1.311 0 011.31-1.48c.84 0 1.29.46 1.29 1.46v5.45h3v-6.25a2.907 2.907 0 00-3-3.12 2.82 2.82 0 00-2.82 2h-.06a2.39 2.39 0 00-2.55-2 2.66 2.66 0 00-2.61 1.94h-.06V11zM24.48 5.4a13.251 13.251 0 012 3.22A13.39 13.39 0 0127.6 14c-.006 7.473-6.057 13.534-13.53 13.55a13.36 13.36 0 01-5.07-1 13.09 13.09 0 01-3.2-1.83A13.53 13.53 0 1124.48 5.4zm-5.9-1.21a10.71 10.71 0 00-4.52-1l.01-.02A10.8 10.8 0 004.3 18.59a2.91 2.91 0 00.79-1.74A5.73 5.73 0 019.94 12a3 3 0 002.71-2.65A5.73 5.73 0 0117.5 4.5a4.39 4.39 0 001.08-.31zM5.79 21l.12-.108a5.48 5.48 0 001.86-3.452 2.92 2.92 0 01.87-1.82 2.83 2.83 0 011.81-.86 5.73 5.73 0 004.85-4.85A2.92 2.92 0 0116.17 8 2.87 2.87 0 0118 7.17a5.48 5.48 0 003-1.43 10.512 10.512 0 012.36 2.78.86.86 0 01-.13.14 2.87 2.87 0 01-1.81.88 5.71 5.71 0 00-4.85 4.85 3 3 0 01-2.69 2.68A5.76 5.76 0 009 21.92a3.14 3.14 0 01-.49 1.37A10.888 10.888 0 015.79 21zm5.27 3.44c.975.28 1.985.421 3 .42v-.05a10.82 10.82 0 0010.42-13.58 5.71 5.71 0 01-2.56 1 3 3 0 00-2.68 2.68 5.73 5.73 0 01-4.86 4.85 3 3 0 00-2.68 2.68c-.09.7-.306 1.378-.64 2z" fill="#696871"/></svg>