<svg width="101" height="48" fill="none" xmlns="http://www.w3.org/2000/svg"><path d="M.79 28.79h3V43.5h-3V28.79z" fill="#696871"/><path fill-rule="evenodd" clip-rule="evenodd" d="M8.82 33.52a5.34 5.34 0 00-3.29 4.94 5.28 5.28 0 005.34 5.33 5.34 5.34 0 10-2.05-10.27zm2.011 2.68a2.32 2.32 0 012.359 2.26 2.26 2.26 0 01-2.32 2.38 2.32 2.32 0 01-.039-4.64zM28.27 43v-9.58l-2.95.03v1a3.59 3.59 0 00-2.94-1.31 5.12 5.12 0 100 10.24 3.56 3.56 0 002.94-1.31V43A2 2 0 0123 45.16a2.3 2.3 0 01-2.25-1.27l-2.58 1.49a5.15 5.15 0 004.77 2.44c2.68 0 5.33-1.43 5.33-4.82zm-4.385-7.064a2.44 2.44 0 011.435 2.324 2.28 2.28 0 01-2.44 2.34 2.44 2.44 0 111.005-4.664zm9.405-2.416A5.34 5.34 0 0030 38.46a5.28 5.28 0 005.34 5.33 5.34 5.34 0 10-2.05-10.27zm2.01 2.68a2.32 2.32 0 012.36 2.26h-.02a2.26 2.26 0 01-2.3 2.38 2.32 2.32 0 01-.04-4.64zm8.59-7.3a1.82 1.82 0 00-1.82 1.82 1.83 1.83 0 001.82 1.82 1.82 1.82 0 000-3.64zm1.49 4.52h-3V43.5h3V33.42zm11.784 8.706a5.06 5.06 0 001.296-3.666 5.06 5.06 0 00-4.81-5.32 3.83 3.83 0 00-3 1.23v-.95h-3v14.14h3v-5a3.83 3.83 0 003 1.23 5.06 5.06 0 003.514-1.664zm-4.123-6.005a2.4 2.4 0 012.419 2.339h-.02A2.3 2.3 0 0153 40.92a2.4 2.4 0 01.04-4.8z" fill="#696871"/><path d="M67.8 40.48c0 2.32-2 3.31-4.2 3.31a4.42 4.42 0 01-4.33-2.4l2.62-1.49a1.66 1.66 0 001.71 1.19c.73 0 1.09-.23 1.09-.63 0-1.11-5-.52-5-4 0-2.2 1.86-3.31 4-3.31a4.43 4.43 0 013.94 2.16L65 36.69a1.49 1.49 0 00-1.36-.89c-.52 0-.84.2-.84.57.04 1.15 5 .38 5 4.11zm11.04-7.06V43.5h-3v-.94a3.45 3.45 0 01-2.88 1.23c-2 0-3.77-1.45-3.77-4.18v-6.19h3v5.75A1.66 1.66 0 0074 41c1.1 0 1.87-.64 1.87-2.07v-5.51h2.97zm17.34 3.9v6.18h-3v-5.92c0-1-.49-1.66-1.45-1.66s-1.58.71-1.58 1.9v5.68h-3v-5.92c0-1-.48-1.66-1.45-1.66s-1.57.71-1.57 1.9v5.68h-3V33.42h3v.93a3.1 3.1 0 012.7-1.21 3 3 0 012.64 1.33 3.32 3.32 0 012.92-1.33c2.28 0 3.79 1.66 3.79 4.18zm2.56-3.96a2.24 2.24 0 100-4.48 2.24 2.24 0 000 4.48zm-64-12.2c5.793 0 10.49-4.697 10.49-10.49S40.533.18 34.74.18 24.25 4.877 24.25 10.67s4.697 10.49 10.49 10.49zm23.45 0c5.794 0 10.49-4.697 10.49-10.49S63.983.18 58.19.18 47.7 4.877 47.7 10.67s4.697 10.49 10.49 10.49zM.81.18h20.97v20.97H.81z" fill="#696871"/></svg>